<?xml version="1.0" encoding="UTF-8"?>
<svg  width="156px" height="28px" viewBox="0 0 156 28" version="1.1" xmlns="http://www.w3.org/2000/svg" xmlns:xlink="http://www.w3.org/1999/xlink">
    <title>Daniela Sohneg Schriftzug</title>
        <g id="t" transform="translate(-142.000000, -65.000000)" fill-rule="nonzero" fill="#F6F7F0">
            <path d="M146.056,85.936 C147.864,85.936 149.512,85.336 151,84.136 C152.936,85.256 155.28,85.816 158.032,85.816 C159.392,85.816 160.768,85.568 162.16,85.072 C163.328,84.656 164.32,83.944 165.136,82.936 C166.128,81.704 166.624,80.048 166.624,77.968 C166.624,76.288 166.264,74.736 165.544,73.312 C164.648,71.536 163.344,70.08 161.632,68.944 C161.904,68.448 162.256,67.912 162.688,67.336 C163.12,66.76 163.472,66.472 163.744,66.472 C163.808,66.472 163.86,66.452 163.9,66.412 C163.94,66.372 163.944,66.316 163.912,66.244 C163.88,66.172 163.776,66.136 163.6,66.136 C163.28,66.136 162.856,66.324 162.328,66.7 C161.8,67.076 161.224,67.624 160.6,68.344 C158.584,67.288 156.464,66.76 154.24,66.76 C153.552,66.76 152.856,66.808 152.152,66.904 C148.568,67.432 146.072,68.64 144.664,70.528 C144.008,71.392 143.68,72.264 143.68,73.144 C143.68,73.576 143.76,74.008 143.92,74.44 C144.304,75.576 145.104,76.352 146.32,76.768 L146.32,76.768 L147.568,76.984 C148.224,76.984 148.88,76.808 149.536,76.456 C150.608,75.848 151.224,74.96 151.384,73.792 C151.416,73.584 151.348,73.46 151.18,73.42 C151.012,73.38 150.92,73.432 150.904,73.576 C150.856,74.184 150.48,74.84 149.776,75.544 C149.408,75.896 149.036,76.12 148.66,76.216 C148.284,76.312 147.944,76.36 147.64,76.36 C147.336,76.36 146.976,76.304 146.56,76.192 C145.392,75.824 144.808,75.032 144.808,73.816 C144.808,72.92 145.208,71.976 146.008,70.984 C147.304,69.352 149.192,68.272 151.672,67.744 C152.536,67.568 153.384,67.48 154.216,67.48 C156.232,67.48 158.136,68.016 159.928,69.088 C159.096,70.016 158.26,71.184 157.42,72.592 C156.58,74 155.868,75.3 155.284,76.492 C154.7,77.684 154.008,78.92 153.208,80.2 C152.408,81.48 151.608,82.504 150.808,83.272 C149.032,82.328 147.796,81.732 147.1,81.484 C146.404,81.236 145.712,81.112 145.024,81.112 C144,81.112 143.2,81.44 142.624,82.096 C142.256,82.512 142.072,82.9 142.072,83.26 C142.072,83.62 142.128,83.936 142.24,84.208 C142.72,85.36 143.992,85.936 146.056,85.936 Z M157.264,85.144 C155.088,85.144 153.192,84.664 151.576,83.704 C151.912,83.416 152.344,82.988 152.872,82.42 C153.4,81.852 154.12,80.888 155.032,79.528 C155.944,78.168 157.06,76.396 158.38,74.212 C159.7,72.028 160.592,70.576 161.056,69.856 C162.464,70.96 163.528,72.336 164.248,73.984 C164.824,75.28 165.112,76.664 165.112,78.136 C165.112,80.2 164.512,81.816 163.312,82.984 C161.808,84.424 159.792,85.144 157.264,85.144 Z M145.888,85.192 C144.848,85.192 144.16,84.848 143.824,84.16 C143.696,83.904 143.632,83.636 143.632,83.356 C143.632,83.076 143.772,82.76 144.052,82.408 C144.332,82.056 144.708,81.88 145.18,81.88 C145.652,81.88 146.136,81.968 146.632,82.144 C147.128,82.32 148.312,82.856 150.184,83.752 C148.856,84.712 147.424,85.192 145.888,85.192 Z M174.42,85.048 C175.428,85.048 176.668,83.56 178.14,80.584 C178.188,80.472 178.212,80.376 178.212,80.296 C178.212,80.152 178.148,80.104 178.02,80.152 C177.94,80.168 177.868,80.248 177.804,80.392 C177.164,81.704 176.516,82.768 175.86,83.584 C175.412,84.144 175.036,84.424 174.732,84.424 C174.492,84.424 174.372,84.268 174.372,83.956 C174.372,83.644 174.424,83.236 174.528,82.732 C174.632,82.228 174.948,81.468 175.476,80.452 C176.004,79.436 176.412,78.784 176.7,78.496 C176.572,78.528 176.376,78.52 176.112,78.472 C175.848,78.424 175.684,78.4 175.62,78.4 C175.3,78.4 175.036,78.508 174.828,78.724 C174.62,78.94 174.364,79.344 174.06,79.936 C172.508,82.88 171.252,84.352 170.292,84.352 C169.892,84.352 169.692,84.04 169.692,83.416 C169.692,82.792 170.004,81.96 170.628,80.92 C171.124,80.056 171.66,79.304 172.236,78.664 C173.244,77.576 174.092,77.032 174.78,77.032 C175.372,77.032 175.756,77.32 175.932,77.896 C176.14,77.928 176.276,77.864 176.34,77.704 C176.404,77.544 176.356,77.376 176.196,77.2 C175.684,76.688 175.06,76.432 174.324,76.432 C174.052,76.432 173.764,76.472 173.46,76.552 C172.34,76.824 171.396,77.408 170.628,78.304 C169.268,79.92 168.588,81.512 168.588,83.08 C168.588,83.896 168.828,84.472 169.308,84.808 C169.516,84.968 169.748,85.048 170.004,85.048 C170.932,85.048 172.036,84.016 173.316,81.952 C173.156,82.528 173.076,83.016 173.076,83.416 C173.076,83.816 173.148,84.136 173.292,84.376 C173.58,84.824 173.956,85.048 174.42,85.048 Z M177.2,85.168 C177.312,85.104 177.544,85.064 177.896,85.048 C178.248,85.032 178.484,85.004 178.604,84.964 C178.724,84.924 178.832,84.824 178.928,84.664 C180,82.552 181.112,80.968 182.264,79.912 C183.032,79.192 183.552,78.832 183.824,78.832 C184.096,78.832 184.232,78.916 184.232,79.084 C184.232,79.252 184.144,79.48 183.968,79.768 C183.248,80.92 182.808,81.752 182.648,82.264 C182.488,82.776 182.408,83.212 182.408,83.572 C182.408,83.932 182.488,84.216 182.648,84.424 C182.952,84.872 183.396,85.096 183.98,85.096 C184.564,85.096 185.148,84.772 185.732,84.124 C186.316,83.476 187.032,82.296 187.88,80.584 C187.944,80.472 187.976,80.376 187.976,80.296 C187.976,80.216 187.928,80.152 187.832,80.104 C187.736,80.056 187.64,80.144 187.544,80.368 C186.168,83.136 185.072,84.52 184.256,84.52 C183.952,84.52 183.8,84.312 183.8,83.896 C183.8,82.84 184.784,80.584 186.752,77.128 C186.672,77.096 186.584,77.08 186.488,77.08 C186.088,77.08 185.456,77.316 184.592,77.788 C183.728,78.26 182.988,78.772 182.372,79.324 C181.756,79.876 181.072,80.616 180.32,81.544 C181.664,78.856 182.632,77.352 183.224,77.032 C183.096,77.064 182.9,77.056 182.636,77.008 C182.372,76.96 182.208,76.936 182.144,76.936 C181.808,76.936 181.544,77.032 181.352,77.224 C180.936,77.624 180.056,79.224 178.712,82.024 C177.96,83.608 177.456,84.656 177.2,85.168 Z M191.788,75.952 C192.06,75.952 192.308,75.856 192.532,75.664 C192.756,75.472 192.892,75.24 192.94,74.968 C192.988,74.696 192.928,74.464 192.76,74.272 C192.592,74.08 192.372,73.984 192.1,73.984 C191.828,73.984 191.58,74.08 191.356,74.272 C191.132,74.464 190.996,74.696 190.948,74.968 C190.916,75.24 190.98,75.472 191.14,75.664 C191.3,75.856 191.516,75.952 191.788,75.952 Z M189.976,85 C190.56,85 191.18,84.624 191.836,83.872 C192.076,83.6 192.344,83.212 192.64,82.708 C192.936,82.204 193.136,81.84 193.24,81.616 C193.344,81.392 193.46,81.14 193.588,80.86 C193.716,80.58 193.78,80.404 193.78,80.332 C193.78,80.26 193.764,80.208 193.732,80.176 C193.62,80.08 193.508,80.152 193.396,80.392 C192.484,82.216 191.732,83.424 191.14,84.016 C190.804,84.32 190.484,84.472 190.18,84.472 C189.684,84.472 189.436,84.24 189.436,83.776 C189.436,83.36 189.572,82.856 189.844,82.264 L189.844,82.264 L191.764,77.776 C191.924,77.488 191.972,77.276 191.908,77.14 C191.844,77.004 191.628,76.936 191.26,76.936 L191.26,76.936 L189.94,76.96 C190.132,77.216 190.228,77.424 190.228,77.584 C190.228,77.744 190.212,77.872 190.18,77.968 L190.18,77.968 L188.644,81.88 C188.436,82.392 188.332,82.864 188.332,83.296 C188.332,83.728 188.46,84.12 188.716,84.472 C188.972,84.824 189.392,85 189.976,85 Z M196.8,85.096 C198,85.096 199.008,84.536 199.824,83.416 C200.192,82.936 200.556,82.308 200.916,81.532 C201.276,80.756 201.456,80.336 201.456,80.272 C201.456,80.208 201.424,80.168 201.36,80.152 C201.2,80.12 201.064,80.232 200.952,80.488 C199.768,83.224 198.448,84.592 196.992,84.592 C196.624,84.592 196.34,84.46 196.14,84.196 C195.94,83.932 195.84,83.576 195.84,83.128 C195.84,82.456 195.952,81.848 196.176,81.304 C196.512,81.304 197,81.196 197.64,80.98 C198.28,80.764 198.776,80.52 199.128,80.248 C200.28,79.368 200.856,78.448 200.856,77.488 C200.856,77.216 200.72,76.968 200.448,76.744 C200.16,76.552 199.848,76.456 199.512,76.456 C199.176,76.456 198.824,76.536 198.456,76.696 C197.688,77.016 197.008,77.524 196.416,78.22 C195.824,78.916 195.356,79.668 195.012,80.476 C194.668,81.284 194.496,82.048 194.496,82.768 C194.496,83.488 194.72,84.056 195.168,84.472 C195.616,84.888 196.16,85.096 196.8,85.096 Z M196.344,80.896 C196.76,80.064 197.24,79.312 197.784,78.64 C198.696,77.536 199.376,76.984 199.824,76.984 C200.08,76.984 200.208,77.144 200.208,77.464 C200.208,78.296 199.768,79.088 198.888,79.84 C198.504,80.16 198.052,80.416 197.532,80.608 C197.012,80.8 196.616,80.896 196.344,80.896 Z M203.9,85.048 C204.396,85.048 204.924,84.872 205.484,84.52 C205.692,84.392 205.912,84.196 206.144,83.932 C206.376,83.668 206.56,83.452 206.696,83.284 C206.832,83.116 206.992,82.86 207.176,82.516 C207.36,82.172 207.488,81.932 207.56,81.796 C207.632,81.66 207.744,81.42 207.896,81.076 C208.048,80.732 208.148,80.508 208.196,80.404 C208.244,80.3 208.228,80.216 208.148,80.152 C208.036,80.104 207.916,80.192 207.788,80.416 C207.18,81.616 206.604,82.604 206.06,83.38 C205.516,84.156 204.956,84.544 204.38,84.544 C204.028,84.544 203.772,84.396 203.612,84.1 C203.452,83.804 203.372,83.484 203.372,83.14 C203.372,82.796 203.416,82.452 203.504,82.108 C203.592,81.764 203.7,81.404 203.828,81.028 C203.86,80.934 203.8885,80.84975 203.9135,80.77525 L203.978,80.581 C204.014,80.471 204.036,80.4 204.044,80.368 C205.948,78.624 207.588,76.224 208.964,73.168 C209.348,72.336 209.54,71.648 209.54,71.104 C209.54,70.96 209.532,70.84 209.516,70.744 C209.388,70.216 209.14,69.952 208.772,69.952 C208.244,69.952 207.708,70.24 207.164,70.816 C206.892,71.104 206.52,71.644 206.048,72.436 C205.576,73.228 205,74.408 204.32,75.976 C203.64,77.544 203.116,78.992 202.748,80.32 C202.732,80.384 202.648,80.656 202.496,81.136 C202.344,81.616 202.244,82.112 202.196,82.624 C202.18,82.928 202.172,83.176 202.172,83.368 C202.172,83.56 202.2,83.78 202.256,84.028 C202.312,84.276 202.476,84.508 202.748,84.724 C203.02,84.94 203.404,85.048 203.9,85.048 Z M204.236,79.6 C204.716,78.368 205.336,76.932 206.096,75.292 C206.856,73.652 207.46,72.516 207.908,71.884 C208.356,71.252 208.66,70.936 208.82,70.936 C208.932,70.936 208.988,71.096 208.988,71.416 C208.988,71.736 208.8,72.34 208.424,73.228 C208.048,74.116 207.46,75.192 206.66,76.456 C205.86,77.72 205.052,78.768 204.236,79.6 Z M214.528,85.048 C215.536,85.048 216.776,83.56 218.248,80.584 C218.296,80.472 218.32,80.376 218.32,80.296 C218.32,80.152 218.256,80.104 218.128,80.152 C218.048,80.168 217.976,80.248 217.912,80.392 C217.272,81.704 216.624,82.768 215.968,83.584 C215.52,84.144 215.144,84.424 214.84,84.424 C214.6,84.424 214.48,84.268 214.48,83.956 C214.48,83.644 214.532,83.236 214.636,82.732 C214.74,82.228 215.056,81.468 215.584,80.452 C216.112,79.436 216.52,78.784 216.808,78.496 C216.68,78.528 216.484,78.52 216.22,78.472 C215.956,78.424 215.792,78.4 215.728,78.4 C215.408,78.4 215.144,78.508 214.936,78.724 C214.728,78.94 214.472,79.344 214.168,79.936 C212.616,82.88 211.36,84.352 210.4,84.352 C210,84.352 209.8,84.04 209.8,83.416 C209.8,82.792 210.112,81.96 210.736,80.92 C211.232,80.056 211.768,79.304 212.344,78.664 C213.352,77.576 214.2,77.032 214.888,77.032 C215.48,77.032 215.864,77.32 216.04,77.896 C216.248,77.928 216.384,77.864 216.448,77.704 C216.512,77.544 216.464,77.376 216.304,77.2 C215.792,76.688 215.168,76.432 214.432,76.432 C214.16,76.432 213.872,76.472 213.568,76.552 C212.448,76.824 211.504,77.408 210.736,78.304 C209.376,79.92 208.696,81.512 208.696,83.08 C208.696,83.896 208.936,84.472 209.416,84.808 C209.624,84.968 209.856,85.048 210.112,85.048 C211.04,85.048 212.144,84.016 213.424,81.952 C213.264,82.528 213.184,83.016 213.184,83.416 C213.184,83.816 213.256,84.136 213.4,84.376 C213.688,84.824 214.064,85.048 214.528,85.048 Z M234.728,87.184 C237.64,87.184 240.128,86.56 242.192,85.312 C243.984,84.24 245.344,82.96 246.272,81.472 C246.8,80.64 247.064,79.824 247.064,79.024 C247.064,78.464 246.884,77.856 246.524,77.2 C246.164,76.544 245.512,75.928 244.568,75.352 C243.944,74.968 242.956,74.468 241.604,73.852 C240.252,73.236 239.352,72.792 238.904,72.52 C237.704,71.768 237.104,70.92 237.104,69.976 C237.104,69.272 237.512,68.568 238.328,67.864 C238.856,67.416 239.48,67.064 240.2,66.808 C241.576,66.312 242.832,66.064 243.968,66.064 C245.264,66.064 246.28,66.416 247.016,67.12 C247.528,67.616 247.784,68.144 247.784,68.704 C247.784,68.864 247.76,69.032 247.712,69.208 C247.536,69.88 247.064,70.264 246.296,70.36 C245.864,70.408 245.664,70.536 245.696,70.744 C245.728,70.888 245.888,70.92 246.176,70.84 C246.848,70.648 247.384,70.392 247.784,70.072 C248.36,69.576 248.648,69.016 248.648,68.392 C248.648,68.232 248.632,68.072 248.6,67.912 C248.408,67.096 247.884,66.484 247.028,66.076 C246.172,65.668 245.064,65.464 243.704,65.464 C240.808,65.464 238.568,66.136 236.984,67.48 C235.88,68.424 235.328,69.392 235.328,70.384 C235.328,71.52 235.944,72.504 237.176,73.336 C237.736,73.704 238.828,74.236 240.452,74.932 C242.076,75.628 243.152,76.184 243.68,76.6 C244.656,77.432 245.144,78.392 245.144,79.48 C245.144,79.96 245.048,80.456 244.856,80.968 C244.248,82.696 242.912,84.104 240.848,85.192 C239.888,85.688 238.892,86.044 237.86,86.26 C236.828,86.476 236.012,86.584 235.412,86.584 C234.812,86.584 234.36,86.568 234.056,86.536 C231.368,86.344 229.48,85.52 228.392,84.064 C227.784,83.248 227.48,82.296 227.48,81.208 C227.48,79.56 227.928,78.032 228.824,76.624 C229.24,75.968 229.792,75.368 230.48,74.824 C230.8,74.552 230.9,74.4 230.78,74.368 C230.66,74.336 230.48,74.368 230.24,74.464 C229.088,75.008 228.116,75.936 227.324,77.248 C226.532,78.56 226.136,79.76 226.136,80.848 C226.136,82.56 226.776,83.96 228.056,85.048 C229.704,86.472 231.928,87.184 234.728,87.184 Z M251.932,85 C252.556,85 253.236,84.728 253.972,84.184 C254.34,84.6 254.852,84.808 255.508,84.808 C255.86,84.808 256.236,84.688 256.636,84.448 C256.796,84.352 256.964,84.216 257.14,84.04 C257.316,83.864 257.464,83.704 257.584,83.56 C257.704,83.416 257.84,83.224 257.992,82.984 C258.144,82.744 258.264,82.552 258.352,82.408 C258.44,82.264 258.544,82.068 258.664,81.82 C258.784,81.572 258.868,81.4 258.916,81.304 C258.964,81.208 259.036,81.048 259.132,80.824 L259.132,80.824 L259.276,80.488 C259.308,80.424 259.324,80.368 259.324,80.32 C259.324,80.192 259.244,80.136 259.084,80.152 C259.004,80.152 258.948,80.188 258.916,80.26 C258.884,80.332 258.792,80.532 258.64,80.86 C258.488,81.188 258.364,81.44 258.268,81.616 C258.172,81.792 258.02,82.068 257.812,82.444 C257.604,82.82 257.26,83.256 256.78,83.752 C256.396,84.184 255.988,84.4 255.556,84.4 C255.012,84.4 254.636,84.2 254.428,83.8 C255.324,82.952 255.996,82.008 256.444,80.968 C256.796,80.2 256.972,79.48 256.972,78.808 C256.972,77.336 256.388,76.6 255.22,76.6 C254.436,76.6 253.608,76.992 252.736,77.776 C251.864,78.56 251.188,79.512 250.708,80.632 C250.356,81.4 250.18,82.12 250.18,82.792 C250.18,84.264 250.764,85 251.932,85 Z M252.364,84.496 C251.804,84.496 251.524,84.128 251.524,83.392 C251.524,82.656 251.804,81.712 252.364,80.56 C252.828,79.568 253.356,78.784 253.948,78.208 C254.54,77.632 255.052,77.344 255.484,77.344 C256.076,77.344 256.372,77.736 256.372,78.52 C256.372,79.304 256.172,80.104 255.772,80.92 C255.42,81.656 255.108,82.224 254.836,82.624 C254.868,82.496 254.884,82.372 254.884,82.252 C254.884,82.132 254.816,82 254.68,81.856 C254.544,81.712 254.372,81.64 254.164,81.64 C253.636,81.64 253.356,81.984 253.324,82.672 C253.324,83.088 253.452,83.48 253.708,83.848 C253.212,84.28 252.764,84.496 252.364,84.496 Z M258.264,85.168 C258.376,85.104 258.648,85.056 259.08,85.024 C259.56,85.024 259.856,84.904 259.968,84.664 C261.056,82.552 262.176,80.968 263.328,79.912 C264.096,79.192 264.616,78.832 264.888,78.832 C265.16,78.832 265.296,78.916 265.296,79.084 C265.296,79.252 265.208,79.48 265.032,79.768 C264.312,80.92 263.872,81.752 263.712,82.264 C263.552,82.776 263.472,83.212 263.472,83.572 C263.472,83.932 263.544,84.216 263.688,84.424 C264.008,84.872 264.44,85.096 264.984,85.096 C265.816,85.096 266.6,84.536 267.336,83.416 C267.688,82.856 267.956,82.404 268.14,82.06 C268.324,81.716 268.508,81.356 268.692,80.98 C268.876,80.604 268.968,80.376 268.968,80.296 C268.968,80.216 268.924,80.152 268.836,80.104 C268.748,80.056 268.648,80.144 268.536,80.368 C267.16,83.184 266.096,84.592 265.344,84.592 C265.024,84.592 264.864,84.368 264.864,83.92 C264.864,82.848 265.848,80.584 267.816,77.128 C267.736,77.096 267.648,77.08 267.552,77.08 C267.152,77.08 266.52,77.316 265.656,77.788 C264.792,78.26 264.06,78.76 263.46,79.288 C262.86,79.816 262.184,80.552 261.432,81.496 C262.568,79.176 263.756,76.892 264.996,74.644 C266.236,72.396 267.096,71.024 267.576,70.528 C267.448,70.544 267.256,70.532 267,70.492 C266.744,70.452 266.576,70.432 266.496,70.432 C266.176,70.432 265.9,70.544 265.668,70.768 C265.436,70.992 265.168,71.384 264.864,71.944 C263.504,74.44 261.304,78.848 258.264,85.168 Z M267.956,85.168 C268.068,85.104 268.3,85.064 268.652,85.048 C269.004,85.032 269.24,85.004 269.36,84.964 C269.48,84.924 269.588,84.824 269.684,84.664 C270.756,82.552 271.868,80.968 273.02,79.912 C273.788,79.192 274.308,78.832 274.58,78.832 C274.852,78.832 274.988,78.916 274.988,79.084 C274.988,79.252 274.9,79.48 274.724,79.768 C274.004,80.92 273.564,81.752 273.404,82.264 C273.244,82.776 273.164,83.212 273.164,83.572 C273.164,83.932 273.244,84.216 273.404,84.424 C273.708,84.872 274.152,85.096 274.736,85.096 C275.32,85.096 275.904,84.772 276.488,84.124 C277.072,83.476 277.788,82.296 278.636,80.584 C278.7,80.472 278.732,80.376 278.732,80.296 C278.732,80.216 278.684,80.152 278.588,80.104 C278.492,80.056 278.396,80.144 278.3,80.368 C276.924,83.136 275.828,84.52 275.012,84.52 C274.708,84.52 274.556,84.312 274.556,83.896 C274.556,82.84 275.54,80.584 277.508,77.128 C277.428,77.096 277.34,77.08 277.244,77.08 C276.844,77.08 276.212,77.316 275.348,77.788 C274.484,78.26 273.744,78.772 273.128,79.324 C272.512,79.876 271.828,80.616 271.076,81.544 C272.42,78.856 273.388,77.352 273.98,77.032 C273.852,77.064 273.656,77.056 273.392,77.008 C273.128,76.96 272.964,76.936 272.9,76.936 C272.564,76.936 272.3,77.032 272.108,77.224 C271.692,77.624 270.812,79.224 269.468,82.024 C268.716,83.608 268.212,84.656 267.956,85.168 Z M281.68,85.096 C282.88,85.096 283.888,84.536 284.704,83.416 C285.072,82.936 285.436,82.308 285.796,81.532 C286.156,80.756 286.336,80.336 286.336,80.272 C286.336,80.208 286.304,80.168 286.24,80.152 C286.08,80.12 285.944,80.232 285.832,80.488 C284.648,83.224 283.328,84.592 281.872,84.592 C281.504,84.592 281.22,84.46 281.02,84.196 C280.82,83.932 280.72,83.576 280.72,83.128 C280.72,82.456 280.832,81.848 281.056,81.304 C281.392,81.304 281.88,81.196 282.52,80.98 C283.16,80.764 283.656,80.52 284.008,80.248 C285.16,79.368 285.736,78.448 285.736,77.488 C285.736,77.216 285.6,76.968 285.328,76.744 C285.04,76.552 284.728,76.456 284.392,76.456 C284.056,76.456 283.704,76.536 283.336,76.696 C282.568,77.016 281.888,77.524 281.296,78.22 C280.704,78.916 280.236,79.668 279.892,80.476 C279.548,81.284 279.376,82.048 279.376,82.768 C279.376,83.488 279.6,84.056 280.048,84.472 C280.496,84.888 281.04,85.096 281.68,85.096 Z M281.224,80.896 C281.64,80.064 282.12,79.312 282.664,78.64 C283.576,77.536 284.256,76.984 284.704,76.984 C284.96,76.984 285.088,77.144 285.088,77.464 C285.088,78.296 284.648,79.088 283.768,79.84 C283.384,80.16 282.932,80.416 282.412,80.608 C281.892,80.8 281.496,80.896 281.224,80.896 Z M285.948,92.584 C287.036,92.584 288.132,92.176 289.236,91.36 C290.34,90.544 291.256,89.6 291.984,88.528 C292.712,87.456 293.268,86.376 293.652,85.288 C294.468,84.904 295.112,84.388 295.584,83.74 C296.056,83.092 296.644,82.04 297.348,80.584 C297.396,80.472 297.42,80.376 297.42,80.296 C297.42,80.168 297.364,80.116 297.252,80.14 C297.14,80.164 297.06,80.224 297.012,80.32 C296.964,80.416 296.868,80.628 296.724,80.956 C296.58,81.284 296.416,81.616 296.232,81.952 C296.048,82.288 295.8,82.664 295.488,83.08 C295.176,83.496 294.652,83.968 293.916,84.496 C294.252,83.264 294.42,82.164 294.42,81.196 C294.42,80.228 294.356,79.384 294.228,78.664 C294.148,78.728 293.996,78.768 293.772,78.784 C293.548,78.8 293.344,78.864 293.16,78.976 C292.976,79.088 292.82,79.36 292.692,79.792 C292.564,80.224 292.264,80.828 291.792,81.604 C291.32,82.38 290.808,83.02 290.256,83.524 C289.704,84.028 289.244,84.28 288.876,84.28 C288.764,84.28 288.652,84.256 288.54,84.208 C288.22,84.032 288.06,83.684 288.06,83.164 C288.06,82.644 288.324,81.904 288.852,80.944 C289.284,80.176 289.796,79.456 290.388,78.784 C291.444,77.6 292.396,77.008 293.244,77.008 C293.708,77.008 294.044,77.304 294.252,77.896 C294.284,77.992 294.352,78.092 294.456,78.196 C294.56,78.3 294.66,78.284 294.756,78.148 C294.852,78.012 294.9,77.872 294.9,77.728 C294.9,77.584 294.772,77.408 294.516,77.2 C293.828,76.72 293.124,76.48 292.404,76.48 C292.132,76.48 291.86,76.52 291.588,76.6 C290.58,76.84 289.7,77.408 288.948,78.304 C287.572,79.952 286.884,81.464 286.884,82.84 C286.884,83.864 287.3,84.552 288.132,84.904 C289.044,85.16 289.964,84.712 290.892,83.56 C291.676,82.6 292.292,81.664 292.74,80.752 C292.772,80.896 292.788,81.112 292.788,81.4 C292.788,82.84 292.58,84.168 292.164,85.384 C291.78,85.544 291.164,85.76 290.316,86.032 C288.476,86.64 286.964,87.288 285.78,87.976 C284.388,88.792 283.692,89.712 283.692,90.736 C283.692,91.968 284.444,92.584 285.948,92.584 Z M285.372,92.104 C284.588,92.104 284.196,91.8 284.196,91.192 C284.196,91.016 284.236,90.808 284.316,90.568 C284.556,89.8 285.052,89.168 285.804,88.672 C286.828,88 288.588,87.232 291.084,86.368 L291.084,86.368 L291.924,86.08 C291.604,86.864 291.148,87.672 290.556,88.504 C289.772,89.544 289.052,90.328 288.396,90.856 C288.012,91.144 287.528,91.424 286.944,91.696 C286.36,91.968 285.836,92.104 285.372,92.104 Z" id="DanielaSohneg"></path>
        </g>
</svg>