<?xml version="1.0" encoding="UTF-8"?>
<svg width="1090px" height="1224px" viewBox="0 0 1090 1224" version="1.1" xmlns="http://www.w3.org/2000/svg" xmlns:xlink="http://www.w3.org/1999/xlink">
    <!-- Generator: Sketch 64 (93537) - https://sketch.com -->
    <title>Artboard</title>
    <desc>Created with Sketch.</desc>
    <defs>
        <linearGradient x1="50%" y1="0%" x2="50%" y2="100%" id="linearGradient-1">
            <stop stop-color="#398700" offset="0%"></stop>
            <stop stop-color="#86B052" offset="100%"></stop>
        </linearGradient>
    </defs>
    <g id="Logo-final" stroke="none" stroke-width="1" fill="none" fill-rule="evenodd">
        <g id="Artboard" transform="translate(-911.000000, -559.000000)">
            <path d="M1362.42979,606 C1362.49679,606 1362.56378,606.000011 1362.63077,606.000033 C1362.63216,606 1048.4598,915.187135 1362.63216,1187 C1655.87772,1440.7076 1401.69792,1726.97635 1366.53537,1763.98702 L1362.42978,1764 C1362.42978,1764 1577.93919,1457.47059 1263.92003,1185 C949.90086,912.529412 1362.42979,606 1362.42979,606 Z" id="Oval-79" fill="#B60064"></path>
            <path d="M1223.62591,1260.97476 C1491.08146,1490.57151 1269.68299,1749.01961 1229.57434,1791.82342 L1228.70581,1791.81249 C1228.70581,1791.81249 1423.80894,1516.09552 1133.74038,1264.48495 C889.326641,1052.47617 1121.4084,818.137383 1200.51933,749.622742 L1200.51058,749.630886 C1137.57708,825.222866 983.382643,1054.73834 1223.62591,1260.97476 Z" id="Oval-79" fill="#B60064" transform="translate(1189.108418, 1269.583832) rotate(-15.000000) translate(-1189.108418, -1269.583832) "></path>
            <path d="M1396.67578,1184.5 C1708.69627,1457.01462 1396.67578,1767 1396.67578,1767 C1720.4937,1767 1983,1506.20587 1983,1184.5 C1983,862.794133 1720.4937,602 1396.67578,602 C1396.67578,602 1084.65528,911.98538 1396.67578,1184.5 Z" id="Oval-79" fill="url(#linearGradient-1)"></path>
            <path d="M1087.06204,752.255004 C1090.03775,737.100455 1102.37982,694.711391 1102.37982,694.711391 C1102.37982,694.711391 1079.77606,714.327597 1068.84642,726.157056 C1057.58648,738.344021 1035.81107,766.760663 1035.81107,766.760663 C1035.81107,766.760663 1022.77872,719.948878 1047.04396,652.929893 C1071.30921,585.910908 1123.67669,574.536226 1140.25518,581.87663 C1156.83368,589.217033 1183.59175,646.426267 1158.572,702.31079 C1133.55225,758.195312 1084.03941,788.114563 1084.03941,788.114563 C1084.03941,788.114563 1083.92428,768.234845 1087.06204,752.255004 Z" id="Rectangle-1" fill="#4D9216"></path>
            <path d="M994.084506,782.002636 C975.175127,790.954 978.262867,799.099689 978.262867,799.099689 C978.262867,799.099689 983.259732,788.815861 1002.35256,787.696056 C1021.44539,786.576252 1030.68855,787.763752 1030.68855,787.763752 C1030.68855,787.763752 1018.14299,814.987955 986.200528,833.030412 C954.258068,851.072869 929.765691,838.603461 925.660938,830.435091 C921.556185,822.26672 930.059481,791.583853 958.586737,778.079558 C987.113993,764.575263 1028.3437,775.392311 1028.3437,775.392311 C1028.3437,775.392311 1012.99388,773.051273 994.084506,782.002636 Z" id="Rectangle-1" fill="#4D9216"></path>
        </g>
    </g>
</svg>